<svg width="25" height="25" viewBox="0 0 25 25" fill="none" xmlns="http://www.w3.org/2000/svg">
<path d="M12.1211 2.91797C6.60709 2.91797 2.12109 7.40397 2.12109 12.918C2.12109 18.432 6.60709 22.918 12.1211 22.918C17.6351 22.918 22.1211 18.432 22.1211 12.918C22.1211 7.40397 17.6351 2.91797 12.1211 2.91797ZM10.1221 17.331L7.11655 14.3319C6.72579 13.942 6.725 13.3092 7.11478 12.9183C7.50481 12.5272 8.13811 12.5264 8.52902 12.9167L10.1201 14.505L14.7071 9.91797C15.0976 9.5275 15.7306 9.5275 16.1211 9.91797C16.5116 10.3084 16.5116 10.9415 16.1211 11.332L10.1221 17.331Z" fill="#2FAB73"/>
</svg>
