<svg width="149" height="37" viewBox="0 0 149 37" fill="none" xmlns="http://www.w3.org/2000/svg">
<path d="M47.04 25.2607C46.9067 25.2607 46.7933 25.2141 46.7 25.1207C46.6067 25.0274 46.56 24.9141 46.56 24.7807V11.7407C46.56 11.5941 46.6067 11.4807 46.7 11.4007C46.7933 11.3074 46.9067 11.2607 47.04 11.2607H48.92C49.0667 11.2607 49.18 11.3074 49.26 11.4007C49.3533 11.4807 49.4 11.5941 49.4 11.7407V22.8607H55.74C55.8867 22.8607 56.0067 22.9074 56.1 23.0007C56.1933 23.0941 56.24 23.2074 56.24 23.3407V24.7807C56.24 24.9141 56.1933 25.0274 56.1 25.1207C56.0067 25.2141 55.8867 25.2607 55.74 25.2607H47.04ZM60.9611 25.4607C60.2811 25.4607 59.6544 25.3274 59.0811 25.0607C58.5211 24.7807 58.0744 24.4074 57.7411 23.9407C57.4211 23.4741 57.2611 22.9607 57.2611 22.4007C57.2611 21.4941 57.6278 20.7607 58.3611 20.2007C59.0944 19.6407 60.1011 19.2607 61.3811 19.0607L64.1211 18.6607V18.2407C64.1211 17.6674 63.9744 17.2341 63.6811 16.9407C63.3878 16.6474 62.9211 16.5007 62.2811 16.5007C61.8411 16.5007 61.4878 16.5807 61.2211 16.7407C60.9544 16.9007 60.7344 17.0674 60.5611 17.2407C60.4011 17.4007 60.2944 17.5074 60.2411 17.5607C60.1878 17.7207 60.0878 17.8007 59.9411 17.8007H58.3811C58.2611 17.8007 58.1544 17.7607 58.0611 17.6807C57.9811 17.6007 57.9411 17.4941 57.9411 17.3607C57.9544 17.0274 58.1144 16.6541 58.4211 16.2407C58.7411 15.8141 59.2278 15.4474 59.8811 15.1407C60.5344 14.8207 61.3411 14.6607 62.3011 14.6607C63.8744 14.6607 65.0211 15.0141 65.7411 15.7207C66.4611 16.4274 66.8211 17.3541 66.8211 18.5007V24.7807C66.8211 24.9141 66.7744 25.0274 66.6811 25.1207C66.6011 25.2141 66.4878 25.2607 66.3411 25.2607H64.6811C64.5478 25.2607 64.4344 25.2141 64.3411 25.1207C64.2478 25.0274 64.2011 24.9141 64.2011 24.7807V24.0007C63.9078 24.4274 63.4944 24.7807 62.9611 25.0607C62.4278 25.3274 61.7611 25.4607 60.9611 25.4607ZM61.6411 23.5407C62.3744 23.5407 62.9744 23.3007 63.4411 22.8207C63.9078 22.3407 64.1411 21.6474 64.1411 20.7407V20.3407L62.1411 20.6607C60.6078 20.9007 59.8411 21.4141 59.8411 22.2007C59.8411 22.6274 60.0144 22.9607 60.3611 23.2007C60.7211 23.4274 61.1478 23.5407 61.6411 23.5407ZM73.3464 25.4607C72.3331 25.4607 71.4864 25.3074 70.8064 25.0007C70.1264 24.6941 69.6197 24.3407 69.2864 23.9407C68.9664 23.5274 68.8064 23.1741 68.8064 22.8807C68.8064 22.7474 68.8464 22.6407 68.9264 22.5607C69.0197 22.4807 69.1264 22.4407 69.2464 22.4407H70.8864C70.9931 22.4407 71.0864 22.4941 71.1664 22.6007C71.2331 22.6541 71.3797 22.7807 71.6064 22.9807C71.8464 23.1807 72.1131 23.3407 72.4064 23.4607C72.7131 23.5674 73.0464 23.6207 73.4064 23.6207C73.9397 23.6207 74.3731 23.5207 74.7064 23.3207C75.0397 23.1074 75.2064 22.8074 75.2064 22.4207C75.2064 22.1541 75.1264 21.9407 74.9664 21.7807C74.8197 21.6074 74.5464 21.4541 74.1464 21.3207C73.7597 21.1741 73.1731 21.0141 72.3864 20.8407C71.2531 20.6007 70.4131 20.2341 69.8664 19.7407C69.3331 19.2474 69.0664 18.5941 69.0664 17.7807C69.0664 17.2474 69.2264 16.7474 69.5464 16.2807C69.8664 15.8007 70.3397 15.4141 70.9664 15.1207C71.6064 14.8141 72.3664 14.6607 73.2464 14.6607C74.1531 14.6607 74.9331 14.8074 75.5864 15.1007C76.2397 15.3807 76.7331 15.7207 77.0664 16.1207C77.4131 16.5207 77.5864 16.8741 77.5864 17.1807C77.5864 17.3007 77.5397 17.4074 77.4464 17.5007C77.3664 17.5807 77.2664 17.6207 77.1464 17.6207H75.6464C75.4997 17.6207 75.3864 17.5674 75.3064 17.4607C75.2131 17.3941 75.0597 17.2741 74.8464 17.1007C74.6464 16.9141 74.4197 16.7674 74.1664 16.6607C73.9131 16.5541 73.6064 16.5007 73.2464 16.5007C72.7531 16.5007 72.3731 16.6074 72.1064 16.8207C71.8397 17.0341 71.7064 17.3141 71.7064 17.6607C71.7064 17.9007 71.7664 18.1007 71.8864 18.2607C72.0197 18.4207 72.2797 18.5741 72.6664 18.7207C73.0531 18.8541 73.6331 18.9941 74.4064 19.1407C76.8064 19.6074 78.0064 20.6541 78.0064 22.2807C78.0064 23.2274 77.5931 23.9941 76.7664 24.5807C75.9531 25.1674 74.8131 25.4607 73.3464 25.4607ZM80.5505 25.2607C80.4171 25.2607 80.3038 25.2141 80.2105 25.1207C80.1171 25.0274 80.0705 24.9141 80.0705 24.7807V11.5407C80.0705 11.3941 80.1171 11.2807 80.2105 11.2007C80.3038 11.1074 80.4171 11.0607 80.5505 11.0607H82.2305C82.3771 11.0607 82.4905 11.1074 82.5705 11.2007C82.6638 11.2807 82.7105 11.3941 82.7105 11.5407V24.7807C82.7105 24.9141 82.6638 25.0274 82.5705 25.1207C82.4905 25.2141 82.3771 25.2607 82.2305 25.2607H80.5505ZM89.863 25.4607C88.3696 25.4607 87.183 25.0341 86.303 24.1807C85.4363 23.3274 84.9763 22.1141 84.923 20.5407L84.903 20.0407C84.903 18.3741 85.3363 17.0607 86.203 16.1007C87.083 15.1407 88.2963 14.6607 89.843 14.6607C91.4296 14.6607 92.6496 15.1407 93.503 16.1007C94.3696 17.0607 94.803 18.3407 94.803 19.9407V20.3607C94.803 20.4941 94.7563 20.6074 94.663 20.7007C94.5696 20.7941 94.4496 20.8407 94.303 20.8407H87.663V21.0007C87.6896 21.7474 87.8896 22.3674 88.263 22.8607C88.6496 23.3407 89.1763 23.5807 89.843 23.5807C90.603 23.5807 91.223 23.2741 91.703 22.6607C91.823 22.5141 91.9163 22.4274 91.983 22.4007C92.0496 22.3607 92.163 22.3407 92.323 22.3407H94.083C94.203 22.3407 94.303 22.3741 94.383 22.4407C94.4763 22.5074 94.523 22.6007 94.523 22.7207C94.523 23.0407 94.3296 23.4207 93.943 23.8607C93.5696 24.2874 93.0296 24.6607 92.323 24.9807C91.6163 25.3007 90.7963 25.4607 89.863 25.4607ZM92.043 19.1407V19.1007C92.043 18.3141 91.843 17.6874 91.443 17.2207C91.0563 16.7407 90.523 16.5007 89.843 16.5007C89.163 16.5007 88.6296 16.7407 88.243 17.2207C87.8563 17.6874 87.663 18.3141 87.663 19.1007V19.1407H92.043ZM100.885 25.4607C99.8721 25.4607 99.0255 25.3074 98.3455 25.0007C97.6655 24.6941 97.1588 24.3407 96.8255 23.9407C96.5055 23.5274 96.3455 23.1741 96.3455 22.8807C96.3455 22.7474 96.3855 22.6407 96.4655 22.5607C96.5588 22.4807 96.6655 22.4407 96.7855 22.4407H98.4255C98.5321 22.4407 98.6255 22.4941 98.7055 22.6007C98.7721 22.6541 98.9188 22.7807 99.1455 22.9807C99.3855 23.1807 99.6521 23.3407 99.9455 23.4607C100.252 23.5674 100.585 23.6207 100.945 23.6207C101.479 23.6207 101.912 23.5207 102.245 23.3207C102.579 23.1074 102.745 22.8074 102.745 22.4207C102.745 22.1541 102.665 21.9407 102.505 21.7807C102.359 21.6074 102.085 21.4541 101.685 21.3207C101.299 21.1741 100.712 21.0141 99.9255 20.8407C98.7921 20.6007 97.9521 20.2341 97.4055 19.7407C96.8721 19.2474 96.6055 18.5941 96.6055 17.7807C96.6055 17.2474 96.7655 16.7474 97.0855 16.2807C97.4055 15.8007 97.8788 15.4141 98.5055 15.1207C99.1455 14.8141 99.9055 14.6607 100.785 14.6607C101.692 14.6607 102.472 14.8074 103.125 15.1007C103.779 15.3807 104.272 15.7207 104.605 16.1207C104.952 16.5207 105.125 16.8741 105.125 17.1807C105.125 17.3007 105.079 17.4074 104.985 17.5007C104.905 17.5807 104.805 17.6207 104.685 17.6207H103.185C103.039 17.6207 102.925 17.5674 102.845 17.4607C102.752 17.3941 102.599 17.2741 102.385 17.1007C102.185 16.9141 101.959 16.7674 101.705 16.6607C101.452 16.5541 101.145 16.5007 100.785 16.5007C100.292 16.5007 99.9121 16.6074 99.6455 16.8207C99.3788 17.0341 99.2455 17.3141 99.2455 17.6607C99.2455 17.9007 99.3055 18.1007 99.4255 18.2607C99.5588 18.4207 99.8188 18.5741 100.205 18.7207C100.592 18.8541 101.172 18.9941 101.945 19.1407C104.345 19.6074 105.545 20.6541 105.545 22.2807C105.545 23.2274 105.132 23.9941 104.305 24.5807C103.492 25.1674 102.352 25.4607 100.885 25.4607ZM111.63 25.2607C111.403 25.2607 111.216 25.2074 111.07 25.1007C110.936 24.9807 110.843 24.8341 110.79 24.6607L106.75 11.8607L106.71 11.6807C106.71 11.5741 106.75 11.4807 106.83 11.4007C106.923 11.3074 107.03 11.2607 107.15 11.2607H109.77C109.97 11.2607 110.13 11.3207 110.25 11.4407C110.383 11.5474 110.47 11.6674 110.51 11.8007L113.23 20.8407L115.97 11.8007C116.01 11.6541 116.09 11.5274 116.21 11.4207C116.343 11.3141 116.51 11.2607 116.71 11.2607H119.33C119.45 11.2607 119.55 11.3074 119.63 11.4007C119.71 11.4807 119.75 11.5741 119.75 11.6807C119.75 11.7474 119.743 11.8074 119.73 11.8607L115.67 24.6607C115.63 24.8341 115.536 24.9807 115.39 25.1007C115.256 25.2074 115.076 25.2607 114.85 25.2607H111.63ZM122.075 25.2607C121.942 25.2607 121.822 25.2141 121.715 25.1207C121.622 25.0141 121.575 24.8941 121.575 24.7607V11.7807C121.575 11.6341 121.622 11.5141 121.715 11.4207C121.808 11.3141 121.928 11.2607 122.075 11.2607H127.735C129.468 11.2607 130.828 11.6541 131.815 12.4407C132.802 13.2274 133.295 14.3807 133.295 15.9007C133.295 17.4207 132.802 18.5607 131.815 19.3207C130.828 20.0674 129.468 20.4407 127.735 20.4407H125.455V24.7607C125.455 24.8941 125.408 25.0141 125.315 25.1207C125.222 25.2141 125.102 25.2607 124.955 25.2607H122.075ZM127.635 17.5807C128.182 17.5807 128.608 17.4407 128.915 17.1607C129.235 16.8674 129.395 16.4407 129.395 15.8807C129.395 15.3607 129.248 14.9407 128.955 14.6207C128.675 14.3007 128.235 14.1407 127.635 14.1407H125.395V17.5807H127.635ZM135.649 25.2607C135.516 25.2607 135.396 25.2141 135.289 25.1207C135.196 25.0141 135.149 24.8941 135.149 24.7607V11.7807C135.149 11.6341 135.196 11.5141 135.289 11.4207C135.382 11.3141 135.502 11.2607 135.649 11.2607H137.909C138.216 11.2607 138.442 11.3874 138.589 11.6407L143.309 19.1007V11.7807C143.309 11.6341 143.356 11.5141 143.449 11.4207C143.542 11.3141 143.662 11.2607 143.809 11.2607H146.349C146.496 11.2607 146.616 11.3141 146.709 11.4207C146.802 11.5141 146.849 11.6341 146.849 11.7807V24.7407C146.849 24.8874 146.802 25.0141 146.709 25.1207C146.616 25.2141 146.496 25.2607 146.349 25.2607H144.089C143.782 25.2607 143.556 25.1341 143.409 24.8807L138.709 17.7207V24.7607C138.709 24.9074 138.656 25.0274 138.549 25.1207C138.456 25.2141 138.336 25.2607 138.189 25.2607H135.649Z" fill="#0B132A"/>
<path d="M31.1473 13.7923L31.1255 13.7705C31.1238 13.7693 31.1224 13.7676 31.1215 13.7658L17.5006 0.144531L3.87983 13.7654C3.87826 13.767 3.8758 13.7701 3.8758 13.7701L3.85333 13.7919C1.77053 15.8864 0.447586 18.617 0.0948177 21.5497C-0.25795 24.4825 0.379698 27.4489 1.90639 29.9777C3.43309 32.5064 5.76122 34.4523 8.52069 35.5058C11.2802 36.5593 14.3126 36.6602 17.136 35.7923C17.3735 35.7196 17.6275 35.7196 17.8651 35.7923C20.6882 36.6599 23.7205 36.5589 26.4798 35.5052C29.2391 34.4516 31.567 32.5059 33.0936 29.9773C34.6202 27.4488 35.2579 24.4825 34.9053 21.5499C34.5526 18.6174 33.2299 15.8868 31.1473 13.7923ZM8.7232 22.7744C8.65689 22.8407 8.6043 22.9195 8.56844 23.006C8.53257 23.0925 8.5141 23.1854 8.51412 23.2791C8.53835 25.6831 9.21776 28.035 10.4792 30.0816C10.5079 30.128 10.5211 30.1824 10.517 30.2367C10.513 30.2911 10.4918 30.3428 10.4566 30.3845C10.4213 30.4261 10.3738 30.4555 10.3209 30.4685C10.2679 30.4815 10.2122 30.4775 10.1616 30.4569C9.21332 30.058 8.35182 29.4782 7.62531 28.7499C6.13646 27.2607 5.29946 25.2415 5.2981 23.1358C5.29675 21.03 6.13117 19.0098 7.61812 17.5188L17.5006 7.63726L27.3826 17.5188C28.8698 19.0096 29.7045 21.0299 29.703 23.1358C29.7018 25.2415 28.8647 27.2607 27.3757 28.7499C26.6492 29.4782 25.7877 30.058 24.8396 30.4569C24.7889 30.4775 24.7332 30.4815 24.6802 30.4685C24.6273 30.4555 24.5798 30.426 24.5445 30.3845C24.5093 30.3428 24.488 30.2911 24.484 30.2366C24.4799 30.1822 24.4931 30.1279 24.5218 30.0814C25.7835 28.0349 26.4633 25.6831 26.4879 23.2791C26.4879 23.1854 26.4692 23.0925 26.4332 23.0058C26.3971 22.9191 26.3444 22.8405 26.2779 22.7742L21.6037 17.8163C21.5571 17.7774 21.4985 17.7561 21.4378 17.7561C21.3773 17.7561 21.3186 17.7774 21.2721 17.8163C21.2255 17.855 21.1942 17.909 21.1833 17.9686C21.1724 18.0282 21.1828 18.0896 21.2127 18.1423C23.0281 21.4275 21.467 26.1462 18.8637 28.7499L18.85 28.7636C18.4907 29.119 18.0056 29.3183 17.5002 29.3181C16.9948 29.318 16.5098 29.1183 16.1508 28.7627L16.1382 28.7499C13.5339 26.1462 11.9736 21.428 13.7893 18.143C13.8192 18.0903 13.8296 18.0289 13.8187 17.9693C13.8079 17.9097 13.7764 17.8557 13.7299 17.817C13.6834 17.7781 13.6247 17.7568 13.5642 17.7568C13.5036 17.7568 13.4449 17.7781 13.3984 17.817L8.7232 22.7744Z" fill="#F53838"/>
</svg>
