<svg width="16" height="17" viewBox="0 0 16 17" fill="none" xmlns="http://www.w3.org/2000/svg">
<path d="M14.1887 5.53497L10.2215 4.9584L8.4481 1.36309C8.39966 1.26465 8.31998 1.18497 8.22154 1.13653C7.97466 1.01465 7.67466 1.11622 7.55123 1.36309L5.77779 4.9584L1.8106 5.53497C1.70123 5.55059 1.60123 5.60215 1.52466 5.68028C1.4321 5.77541 1.3811 5.9034 1.38286 6.03613C1.38461 6.16885 1.43899 6.29544 1.53404 6.38809L4.40435 9.18653L3.72623 13.1381C3.71032 13.23 3.7205 13.3246 3.75559 13.411C3.79068 13.4974 3.84929 13.5723 3.92477 13.6271C4.00025 13.6819 4.08958 13.7145 4.18263 13.7211C4.27568 13.7278 4.36873 13.7082 4.45123 13.6647L7.99966 11.799L11.5481 13.6647C11.645 13.7162 11.7575 13.7334 11.8653 13.7147C12.1372 13.6678 12.32 13.41 12.2731 13.1381L11.595 9.18653L14.4653 6.38809C14.5434 6.31153 14.595 6.21153 14.6106 6.10215C14.6528 5.82872 14.4622 5.57559 14.1887 5.53497Z" fill="#FEA250"/>
</svg>
