<svg width="14" height="10" viewBox="0 0 14 10" fill="none" xmlns="http://www.w3.org/2000/svg">
<path d="M5.39541 9.64933C5.26415 9.64959 5.13412 9.62394 5.01279 9.57383C4.89147 9.52372 4.78123 9.45014 4.68841 9.35733L0.446412 5.11433C0.350839 5.02215 0.27458 4.91186 0.222087 4.78989C0.169593 4.66792 0.141916 4.53673 0.140669 4.40395C0.139422 4.27117 0.164631 4.13947 0.214825 4.01654C0.265019 3.89361 0.339193 3.78191 0.433018 3.68795C0.526844 3.59399 0.638442 3.51966 0.761301 3.46929C0.884161 3.41893 1.01582 3.39353 1.1486 3.39459C1.28138 3.39565 1.41262 3.42314 1.53466 3.47546C1.6567 3.52778 1.7671 3.60388 1.85941 3.69933L5.39441 7.23433L11.7594 0.871328C11.9469 0.683687 12.2013 0.578219 12.4666 0.578125C12.7318 0.578031 12.9863 0.68332 13.1739 0.870828C13.3616 1.05834 13.467 1.3127 13.4671 1.57797C13.4672 1.84324 13.3619 2.09769 13.1744 2.28533L6.10241 9.35733C6.00959 9.45014 5.89935 9.52372 5.77803 9.57383C5.6567 9.62394 5.52668 9.64959 5.39541 9.64933Z" fill="#2FAB73"/>
</svg>
